<?xml version="1.0" encoding="utf-8"?>
<!-- Generator: Adobe Illustrator 22.1.0, SVG Export Plug-In . SVG Version: 6.00 Build 0)  -->
<svg version="1.1" id="Capa_1" xmlns="http://www.w3.org/2000/svg" xmlns:xlink="http://www.w3.org/1999/xlink" x="0px" y="0px"
	 viewBox="0 0 30 30" style="enable-background:new 0 0 30 30;" xml:space="preserve">
<style type="text/css">
	.st0{fill:#C63646;}
</style>
<g>
	<path class="st0" d="M7,11.4L7,11.4l0,15.2c0,0.7,0.6,1.2,1.2,1.2h13.6c0.7,0,1.2-0.6,1.2-1.2c0,0,0-15.2,0-15.2H7z M11.4,23.5
		c0,0.6-0.5,1-1,1c-0.6,0-1-0.5-1-1v-8c0-0.6,0.5-1,1-1c0.6,0,1,0.5,1,1V23.5z M16,23.5c0,0.6-0.5,1-1,1c-0.6,0-1-0.5-1-1v-8
		c0-0.6,0.5-1,1-1c0.6,0,1,0.5,1,1V23.5z M20.7,23.5c0,0.6-0.5,1-1,1c-0.6,0-1-0.5-1-1v-8c0-0.6,0.5-1,1-1c0.6,0,1,0.5,1,1V23.5z
		 M20.7,23.5"/>
	<path class="st0" d="M23,6.3h-2.2c-0.4,0-0.6-0.3-0.6-0.6V3.5c0-0.7-0.6-1.3-1.3-1.3h-7.7c-0.7,0-1.3,0.6-1.3,1.3v2.2
		c0,0.4-0.3,0.6-0.6,0.6H7c-0.7,0-1.3,0.6-1.3,1.3V8c0,0.7,0.6,1.3,1.2,1.3H23c0.7,0,1.2-0.6,1.2-1.3V7.6C24.3,6.9,23.7,6.3,23,6.3
		L23,6.3z M18,6.3h-6V4.9c0-0.4,0.3-0.6,0.6-0.6h4.7c0.4,0,0.6,0.3,0.6,0.6V6.3z M18,6.3"/>
</g>
</svg>
