<?xml version="1.0" encoding="utf-8"?>
<!-- Generator: Adobe Illustrator 22.1.0, SVG Export Plug-In . SVG Version: 6.00 Build 0)  -->
<svg version="1.1" id="Capa_1" xmlns="http://www.w3.org/2000/svg" xmlns:xlink="http://www.w3.org/1999/xlink" x="0px" y="0px"
	 viewBox="0 0 30 30" style="enable-background:new 0 0 30 30;" xml:space="preserve">
<style type="text/css">
	.st0{fill:#7781BB;}
	.st1{fill:#464B5F;}
	.st2{fill:#8CC1A8;}
	.st3{fill:#D8D9DD;}
</style>
<g>
	<g>
		<path class="st0" d="M10.9,3.5l2.3,3.2h14.9V3.5H10.9z M10.9,3.5"/>
		<path class="st1" d="M13.2,6.7l-2.3-3.2h-9v23h26.2V9.8H15.5L13.2,6.7z M13.2,6.7"/>
		<path class="st2" d="M15.5,9.8h12.6V6.7H13.2L15.5,9.8z M15.5,9.8"/>
	</g>
	<g>
		<path class="st3" d="M16.1,23.3h-2.2c-0.2,0-0.4-0.2-0.4-0.4V14c0-0.2,0.2-0.4,0.4-0.4h2.2c0.2,0,0.4,0.2,0.4,0.4v8.9
			C16.5,23.1,16.3,23.3,16.1,23.3z"/>
		<path class="st3" d="M10.1,19.5v-2.1c0-0.2,0.2-0.4,0.4-0.4h8.9c0.2,0,0.4,0.2,0.4,0.4v2.1c0,0.2-0.2,0.4-0.4,0.4h-8.9
			C10.3,20,10.1,19.8,10.1,19.5z"/>
	</g>
</g>
</svg>
