<?xml version="1.0" encoding="utf-8"?>
<!-- Generator: Adobe Illustrator 22.1.0, SVG Export Plug-In . SVG Version: 6.00 Build 0)  -->
<svg version="1.1" id="Capa_1" xmlns="http://www.w3.org/2000/svg" xmlns:xlink="http://www.w3.org/1999/xlink" x="0px" y="0px"
	 viewBox="0 0 30 30" style="enable-background:new 0 0 30 30;" xml:space="preserve">
<style type="text/css">
	.st0{fill:#464B5F;}
	.st1{clip-path:url(#SVGID_2_);fill:none;stroke:#E7EAEB;stroke-width:1.6;stroke-miterlimit:10;}
	.st2{fill:#E4CC56;}
	.st3{fill:#E7EAEB;}
	.st4{fill:#548F73;}
	.st5{fill:#66AB88;}
</style>
<g>
	<rect x="3.3" y="2.6" class="st0" width="23.5" height="24.4"/>
	<g>
		<defs>
			<rect id="SVGID_1_" x="2.8" y="1.9" width="24.3" height="26.2"/>
		</defs>
		<clipPath id="SVGID_2_">
			<use xlink:href="#SVGID_1_"  style="overflow:visible;"/>
		</clipPath>
		<rect x="3.3" y="2.6" class="st1" width="23.5" height="24.4"/>
	</g>
	<path class="st2" d="M11.4,8.8c0,1.2-1,2.2-2.2,2.2C8,11,7,10,7,8.8c0-1.2,1-2.2,2.2-2.2C10.4,6.5,11.4,7.5,11.4,8.8L11.4,8.8z
		 M11.4,8.8"/>
	<rect x="3.3" y="22.2" class="st3" width="23.5" height="4.9"/>
	<path class="st4" d="M26.3,17.8l-0.5-0.5l-5.9-5.4l-5.1,5.6l2.7,2.7l2,2h6.8V17.8z M26.3,17.8"/>
	<path class="st5" d="M17.5,20.2l-5.4-5.4l-8.3,7.3h15.6L17.5,20.2z M17.5,20.2"/>
</g>
</svg>
