<?xml version="1.0" encoding="utf-8"?>
<!-- Generator: Adobe Illustrator 22.1.0, SVG Export Plug-In . SVG Version: 6.00 Build 0)  -->
<svg version="1.1" id="Capa_1" xmlns="http://www.w3.org/2000/svg" xmlns:xlink="http://www.w3.org/1999/xlink" x="0px" y="0px"
	 viewBox="0 0 30 30" style="enable-background:new 0 0 30 30;" xml:space="preserve">
<style type="text/css">
	.st0{fill:#5C6170;}
	.st1{fill:#C6C6C6;}
	.st2{fill:#464B5F;}
</style>
<g>
	<rect x="3.3" y="2.8" class="st0" width="24" height="24"/>
	<rect x="8.3" y="2.8" class="st0" width="14" height="24"/>
	<circle class="st1" cx="15.3" cy="14.8" r="5"/>
	<g>
		<g>
			<path class="st1" d="M14.7,17c-0.3,0-0.6-0.3-0.8-0.5c-0.1,0-0.6-0.6-0.6-0.6c0,0,0.2,0.9,0.2,0.1c0-0.2,0-0.4-0.1-0.6
				c-0.6-1.9-3.2-1.6-3.4,0.4c-0.1,0.8,0.7,1.5,1.5,1.5c0.9,0,1.4-0.7,1.5-1.5c0,0,0-0.1,0-0.1c-0.1,0.4-0.3,0.7-0.4,1.1
				c0,0,0.1-0.1,0.1-0.1c-0.2,0.1-0.4,0.3-0.7,0.4c0,0,0.1,0,0.1,0c-0.3,0-0.5,0-0.8,0c0,0,0.1,0,0.1,0c-0.2-0.1-0.4-0.3-0.7-0.4
				c0,0,0.1,0.1,0.1,0.1c-0.1-0.2-0.3-0.4-0.4-0.7c0-0.4,0-0.3-0.1,0.1c0,0.2,0,0.4,0,0.6c0.1,0.2,0.2,0.5,0.3,0.7
				c0.3,0.4,0.7,0.8,1.1,1.1c0.8,0.8,1.7,1.4,2.9,1.3C16.7,20,16.7,17,14.7,17L14.7,17z"/>
		</g>
	</g>
	<g>
		<polyline points="13.3,16.8 13.3,12.8 17.5,14.8 13.3,17.4 		"/>
		<path class="st1" d="M15,20.5c3.1,0,5.5-2.5,5.5-5.5c0-3.1-2.5-5.5-5.5-5.5S9.5,11.9,9.5,15S11.9,20.5,15,20.5z M15,10.3
			c2.6,0,4.7,2.1,4.7,4.7s-2.1,4.7-4.7,4.7s-4.7-2.1-4.7-4.7S12.4,10.3,15,10.3z"/>
		<path class="st2" d="M2.8,2.8v24.5h24.5V2.8H2.8z M7.5,26.5H3.5V3.5h3.9V26.5z M21.7,26.5H8.3V3.5h13.4V26.5z M26.5,26.5h-3.9V3.5
			h3.9V26.5z"/>
		<rect x="4.7" y="5.9" width="1.6" height="0.8"/>
		<rect x="4.7" y="10.3" width="1.6" height="0.8"/>
		<rect x="4.7" y="14.6" width="1.6" height="0.8"/>
		<rect x="4.7" y="18.9" width="1.6" height="0.8"/>
		<rect x="4.7" y="23.3" width="1.6" height="0.8"/>
		<rect x="23.7" y="5.9" width="1.6" height="0.8"/>
		<rect x="23.7" y="10.3" width="1.6" height="0.8"/>
		<rect x="23.7" y="14.6" width="1.6" height="0.8"/>
		<rect x="23.7" y="18.9" width="1.6" height="0.8"/>
		<rect x="23.7" y="23.3" width="1.6" height="0.8"/>
		<path d="M13.1,11.7v6.6l4.8-3.3L13.1,11.7z M13.9,13.2l2.6,1.8l-2.6,1.8V13.2z"/>
	</g>
</g>
</svg>
