<?xml version="1.0" encoding="utf-8"?>
<!-- Generator: Adobe Illustrator 22.1.0, SVG Export Plug-In . SVG Version: 6.00 Build 0)  -->
<svg version="1.1" id="Capa_1" xmlns="http://www.w3.org/2000/svg" xmlns:xlink="http://www.w3.org/1999/xlink" x="0px" y="0px"
	 viewBox="0 0 30 30" style="enable-background:new 0 0 30 30;" xml:space="preserve">
<g>
	<path d="M23.4,17c-0.3-0.3-1.1-0.5-2.3-0.5c-0.8,0-1.7,0.1-2.7,0.2c-0.4-0.3-0.9-0.5-1.3-0.9c-1-0.9-1.8-2.2-2.3-3.6
		c0-0.1,0.1-0.2,0.1-0.4c0,0,0.6-3.1,0.4-4.2c0-0.1,0-0.2-0.1-0.3l0-0.1c-0.1-0.3-0.4-0.7-0.9-0.7l-0.3,0l0,0c-0.5,0-0.9,0.3-1,0.7
		c-0.3,1.2,0,3.1,0.6,5.5L13.4,13c-0.4,1.1-1,2.2-1.5,3.2l-0.1,0.1c-0.5,1-1,1.9-1.4,2.6L10,19.1c0,0-0.8,0.4-1,0.5
		c-1.5,0.9-2.5,1.9-2.7,2.7c-0.1,0.3,0,0.6,0.3,0.7L7,23.3c0.2,0.1,0.4,0.1,0.6,0.1c1.1,0,2.3-1.3,4-4.3c2-0.6,4.2-1.2,6.2-1.5
		c1.5,0.8,3.4,1.4,4.5,1.4c0.2,0,0.4,0,0.5-0.1c0.2-0.1,0.4-0.2,0.5-0.4c0.2-0.3,0.3-0.8,0.2-1.3C23.6,17.3,23.5,17.1,23.4,17
		L23.4,17z M7.4,22.7c0.2-0.5,1-1.6,2.1-2.5c0.1-0.1,0.2-0.2,0.4-0.4C8.7,21.7,7.9,22.4,7.4,22.7L7.4,22.7z M14.1,7.1
		c0.3,0,0.5,0.9,0.6,1.7c0,0.8-0.2,1.4-0.4,1.8C14.1,9.9,14,8.9,14,8.3C14,8.3,14,7.1,14.1,7.1L14.1,7.1z M12.1,18.2
		c0.2-0.4,0.5-0.9,0.7-1.4c0.6-1.2,1-2.1,1.3-2.9c0.6,1.1,1.3,2,2.2,2.7c0.1,0.1,0.2,0.2,0.3,0.3C14.9,17.3,13.4,17.7,12.1,18.2
		L12.1,18.2z M23,18.1c-0.1,0.1-0.4,0.1-0.6,0.1c-0.6,0-1.4-0.3-2.5-0.8c0.4,0,0.8,0,1.1,0c0.6,0,0.8,0,1.4,0.2
		C23.1,17.7,23.2,18,23,18.1L23,18.1z M24.9,7.1l-3.6-3.6C20.5,2.6,19,2,17.8,2H5.7c-1.1,0-2,0.9-2,2V26c0,1.1,0.9,2,2,2h18.7
		c1.1,0,2-0.9,2-2V10.5C26.4,9.4,25.7,7.9,24.9,7.1L24.9,7.1z M23.8,8.2c0.1,0.1,0.2,0.2,0.2,0.3h-4.2V4.3c0.1,0.1,0.2,0.2,0.3,0.2
		L23.8,8.2z M24.8,26c0,0.2-0.2,0.4-0.4,0.4H5.7c-0.2,0-0.4-0.2-0.4-0.4V4c0-0.2,0.2-0.4,0.4-0.4h12.2c0.1,0,0.3,0,0.4,0v6.5h6.5
		c0,0.1,0,0.3,0,0.4V26z M24.8,26"/>
</g>
</svg>
