<?xml version="1.0" encoding="utf-8"?>
<!-- Generator: Adobe Illustrator 22.1.0, SVG Export Plug-In . SVG Version: 6.00 Build 0)  -->
<svg version="1.1" id="Capa_1" xmlns="http://www.w3.org/2000/svg" xmlns:xlink="http://www.w3.org/1999/xlink" x="0px" y="0px"
	 viewBox="0 0 30 30" style="enable-background:new 0 0 30 30;" xml:space="preserve">
<style type="text/css">
	.st0{fill:#CB4A32;}
</style>
<rect x="20.8" y="7.3" class="st0" width="5.8" height="17.3"/>
<path class="st0" d="M3.4,24.7L19.6,29V3L3.4,7.3V24.7z M4,9h14v13H4V9z"/>
<g>
	<g>
		<path class="st0" d="M13,11.7c-0.2,0-0.7-0.1-1.5-0.1h-1v2.9h1.1c0.8,0,1.4-0.1,1.6-0.2c0.3-0.1,0.5-0.3,0.6-0.5
			c0.2-0.2,0.2-0.5,0.2-0.8c0-0.4-0.1-0.7-0.3-0.9C13.7,12,13.4,11.8,13,11.7z"/>
		<path class="st0" d="M4,9v13h14V9H4z M16,14.7c-0.2,0.4-0.5,0.8-0.9,1s-0.7,0.4-1.1,0.5c-0.5,0.1-1.2,0.1-2.2,0.1h-1.4v3.9H8.5
			V9.9h3.3c1.3,0,2.1,0.1,2.5,0.2c0.6,0.2,1.1,0.5,1.5,1c0.4,0.5,0.6,1.2,0.6,2C16.3,13.7,16.2,14.3,16,14.7z"/>
	</g>
</g>
<g>
	<g>
		<path class="st0" d="M4,8.8C4.1,11.4,4,14,3.8,16.5c-0.1,2-0.7,4.7,0.7,6.4c2.3,2.8,8.3,3.2,11.5,3.1c1.9,0,1.9-3,0-3
			c-3.6,0.1-9.1-0.2-9.4-4.8C6.5,15.2,7.1,12,7,8.8C6.9,6.9,3.9,6.9,4,8.8L4,8.8z"/>
	</g>
</g>
<g>
	<g>
		<path class="st0" d="M18.7,24.1c0.6-4.8,0.9-9.5,0.8-14.3c0-1.9-3-1.9-3,0c0.1,4.8-0.2,9.6-0.8,14.3C15.5,26,18.5,26,18.7,24.1
			L18.7,24.1z"/>
	</g>
</g>
<g>
	<g>
		<path class="st0" d="M19.4,9.6c-0.1-1.4-0.2-2.8-0.3-4.1C19,4.7,18.5,4,17.6,4c-0.7,0-1.6,0.7-1.5,1.5c0.2,1.4,0.3,2.7,0.3,4.1
			C16.5,11.5,19.5,11.6,19.4,9.6L19.4,9.6z"/>
	</g>
</g>
<g>
	<g>
		<path class="st0" d="M17.1,4.3C15.8,4.9,14.4,5.7,13,6c-1.2,0.3-2.3,0.2-3.5,0.7C7.7,7.5,9.2,10.1,11,9.4c0.6-0.2,1.3-0.2,1.8-0.3
			c0.7-0.1,1.3-0.3,2-0.6c1.3-0.5,2.5-1.1,3.8-1.6C20.3,6.1,18.8,3.5,17.1,4.3L17.1,4.3z"/>
	</g>
</g>
<g>
	<g>
		<path class="st0" d="M8.9,6.1C8.1,6.1,7.4,6.5,6.7,6.8C6,7.1,5.3,7.4,4.8,7.9C3.4,9.3,5.5,11.4,6.9,10C7.1,9.8,7.6,9.7,8,9.5
			c0.3-0.1,0.7-0.4,1-0.4c0.8,0.1,1.5-0.7,1.5-1.5C10.4,6.8,9.7,6.2,8.9,6.1L8.9,6.1z"/>
	</g>
</g>
</svg>
