<?xml version="1.0" encoding="utf-8"?>
<!-- Generator: Adobe Illustrator 22.1.0, SVG Export Plug-In . SVG Version: 6.00 Build 0)  -->
<svg version="1.1" id="Capa_1" xmlns="http://www.w3.org/2000/svg" xmlns:xlink="http://www.w3.org/1999/xlink" x="0px" y="0px"
	 viewBox="0 0 30 30" style="enable-background:new 0 0 30 30;" xml:space="preserve">
<style type="text/css">
	.st0{display:none;}
</style>
<path class="st0" d="M177.4-565h-382.5c-52.5,0-94.9,41.5-94.9,94v283h503.3c62,0,112.7,50.1,112.7,112.1V135
	c0,62-50.7,113-112.7,113h-503c1.5,51,43.1,92,94.7,92h558.8c52.5,0,95.3-43.1,95.3-95.6v-537.5L177.4-565z M20.7-296h-200.9
	c-11.1,0-20.1-9.4-20.1-20.5c0-5.6,2.2-10.8,5.9-14.4c3.6-3.6,8.7-6.1,14.2-6.1H20.7c11.1,0,20.1,9.4,20.1,20.5
	C40.7-305.4,31.7-296,20.7-296z M21.6-417h-200.9c-11.1,0-20.1-9.2-20.1-20.3c0-5.6,2.2-10.4,5.9-14c3.6-3.6,8.7-5.7,14.2-5.7H21.6
	c11.1,0,20.1,8.9,20.1,20S32.7-417,21.6-417z M159-276v-221.7L381.3-276H159z"/>
<path class="st0" d="M-202,34h-40v-49h40C-168-15-168,34-202,34z"/>
<path class="st0" d="M-34.7,28.8C-35.3,6.9-48.2-15-78.7-15H-108v90h29.3C-46.8,75-34.1,51.7-34.7,28.8z M-34.7,28.8
	C-35.3,6.9-48.2-15-78.7-15H-108v90h29.3C-46.8,75-34.1,51.7-34.7,28.8z M267-67.7c0-39.9-32.4-72.3-72.3-72.3h-544.3
	c-39.9,0-72.3,32.4-72.3,72.3v195.3c0,39.9,32.4,72.3,72.3,72.3h544.3c39.9,0,72.3-32.4,72.3-72.3L267-67.7L267-67.7z M-202,59h-40
	v41h-26V-40.9c22,0,44-0.2,66-0.2C-133-41.1-133,59-202,59z M-78.7,100H-134V-40h55.3C-30.5-40-9-6-8.4,28.8
	C-7.8,64.3-29.5,100-78.7,100z M114-15H39v39h71v24H39v52H13V-40h101V-15z M-78.7-15H-108v90h29.3c31.9,0,44.6-23.3,44-46.2
	C-35.3,6.9-48.2-15-78.7-15z"/>
<path class="st0" d="M177.4-565h-382.5c-52.5,0-94.9,41.5-94.9,94v283h503.3c62,0,112.7,50.1,112.7,112.1V135
	c0,62-50.7,113-112.7,113h-503c1.5,51,43.1,92,94.7,92h558.8c52.5,0,95.3-43.1,95.3-95.6v-537.5L177.4-565z M20.7-296h-200.9
	c-11.1,0-20.1-9.4-20.1-20.5c0-5.6,2.2-10.8,5.9-14.4c3.6-3.6,8.7-6.1,14.2-6.1H20.7c11.1,0,20.1,9.4,20.1,20.5
	C40.7-305.4,31.7-296,20.7-296z M21.6-417h-200.9c-11.1,0-20.1-9.2-20.1-20.3c0-5.6,2.2-10.4,5.9-14c3.6-3.6,8.7-5.7,14.2-5.7H21.6
	c11.1,0,20.1,8.9,20.1,20S32.7-417,21.6-417z M159-276v-221.7L381.3-276H159z"/>
<path class="st0" d="M-205,35h-39v-50h39C-171-15-171,35-205,35z"/>
<path class="st0" d="M267-67.7c0-39.9-32.4-72.3-72.3-72.3h-544.3c-39.9,0-72.3,32.4-72.3,72.3v195.3c0,39.9,32.4,72.3,72.3,72.3
	h544.3c39.9,0,72.3-32.4,72.3-72.3L267-67.7L267-67.7z M-205,59h-39v41h-27V-40.1c22,0,44-0.2,66-0.2C-136-40.3-136,59-205,59z
	 M-82.2,103.5c-28.6,0-50.6-8.8-61-34.4l22-11.4c6.2,15.4,22.4,22.2,39.4,22.2c16.6,0,32.2-5.8,32.2-21c0-13.2-13.8-18.6-32.4-20.6
	c-28.6-3.4-55-11-55-42.4c0-28.8,28.4-40.6,54.2-40.8c21.8,0,44.4,6.2,55,27.8l-21,10.8c-4.8-8-18-15.6-33.2-15.6
	c-19.6,0-29,8.2-29,18.6c0,12.2,14.4,15.6,31.2,17.6c29.2,3.6,56.4,11.2,56.4,44.6C-23.4,90.1-51,103.5-82.2,103.5z M50.2,100H-5
	V-40h55.2c48,0,69.4,34.2,70,68.8C120.8,64.2,99.2,100,50.2,100z M50.2-15H21v90h29.2C82,75,94.6,51.6,94,28.8
	C93.4,7,80.6-15,50.2-15z"/>
<path class="st0" d="M177.4-565h-382.5c-52.5,0-94.9,41.5-94.9,94v283h503.3c62,0,112.7,50.1,112.7,112.1V135
	c0,62-50.7,113-112.7,113h-503c1.5,51,43.1,92,94.7,92h558.8c52.5,0,95.3-43.1,95.3-95.6v-537.5L177.4-565z M20.7-296h-200.9
	c-11.1,0-20.1-9.4-20.1-20.5c0-5.6,2.2-10.8,5.9-14.4c3.6-3.6,8.7-6.1,14.2-6.1H20.7c11.1,0,20.1,9.4,20.1,20.5
	C40.7-305.4,31.7-296,20.7-296z M21.6-417h-200.9c-11.1,0-20.1-9.2-20.1-20.3c0-5.6,2.2-10.4,5.9-14c3.6-3.6,8.7-5.7,14.2-5.7H21.6
	c11.1,0,20.1,8.9,20.1,20S32.7-417,21.6-417z M159-276v-221.7L381.3-276H159z"/>
<path class="st0" d="M-209,36h-40v-50h40C-176-14-175,36-209,36z"/>
<path class="st0" d="M267-67.7c0-39.9-32.4-72.3-72.3-72.3h-544.3c-39.9,0-72.3,32.4-72.3,72.3v195.3c0,39.9,32.4,72.3,72.3,72.3
	h544.3c39.9,0,72.3-32.4,72.3-72.3L267-67.7L267-67.7z M-209,60h-40v41h-26V-39.4c22,0,44-0.2,66-0.2C-141-39.6-141,60-209,60z
	 M-22,101h-16v-0.2l-74-94.6V101h-26V-39h21.7L-48,47.4V-39h26V101z M127,78.6c-14,15.8-31.1,25.2-55.7,25.2
	c-52.6,0-74-34.6-74-71.4c0-39.4,24.6-75.8,74-75.8c18.8,0,37.6,7.2,52,21.4L106.9-5.2c-9.4-9-23.4-14-35.6-14
	c-30,0-48.1,22.8-48.1,51.6c0,23,13.3,46.8,48.1,46.8c11,0,20.6-2.4,31.6-11.2V44H67V20h60L127,78.6L127,78.6z"/>
<path class="st0" d="M177.4-565h-382.5c-52.5,0-94.9,41.5-94.9,94v283h503.3c62,0,112.7,50.1,112.7,112.1V135
	c0,62-50.7,113-112.7,113h-503c1.5,51,43.1,92,94.7,92h558.8c52.5,0,95.3-43.1,95.3-95.6v-537.5L177.4-565z M20.7-296h-200.9
	c-11.1,0-20.1-9.4-20.1-20.5c0-5.6,2.2-10.8,5.9-14.4c3.6-3.6,8.7-6.1,14.2-6.1H20.7c11.1,0,20.1,9.4,20.1,20.5
	C40.7-305.4,31.7-296,20.7-296z M21.6-417h-200.9c-11.1,0-20.1-9.2-20.1-20.3c0-5.6,2.2-10.4,5.9-14c3.6-3.6,8.7-5.7,14.2-5.7H21.6
	c11.1,0,20.1,8.9,20.1,20S32.7-417,21.6-417z M159-276v-221.7L381.3-276H159z"/>
<path class="st0" d="M-65-14h-40v50h40C-31,36-31-14-65-14z M-65-14h-40v50h40C-31,36-31-14-65-14z M267-67.7
	c0-39.9-32.4-72.3-72.3-72.3h-544.3c-39.9,0-72.3,32.4-72.3,72.3v195.3c0,39.9,32.4,72.3,72.3,72.3h544.3
	c39.9,0,72.3-32.4,72.3-72.3L267-67.7L267-67.7z M-156,40.8c0,36.2-22.7,62.9-61.3,62.9c-35.8,0-61.1-21.7-61.1-60.7h26
	c0,24,11.5,35.9,35.3,35.9c24,0,35.1-16.9,35.1-38.1V-14h-42v-25h68V40.8z M-65,60h-40v41h-26V-39.4c22,0,44-0.2,66-0.2
	C4-39.6,4,60-65,60z M128,78.6c-13,15.8-30.8,25.2-55.4,25.2C20,103.8-1.2,69.2-1.2,32.4c0-39.4,24.6-75.8,74-75.8
	c18.8,0,37.6,7.2,52,21.4L108.5-5.2c-9.4-9-23.4-14-35.6-14c-30,0-48.2,22.8-48.2,51.6c0,23,13.2,46.8,48,46.8
	c11,0,20.3-2.4,31.3-11.2V44H68V20h60V78.6z M-65-14h-40v50h40C-31,36-31-14-65-14z"/>
<path class="st0" d="M177.4-565h-382.5c-52.5,0-94.9,41.5-94.9,94v283h503.3c62,0,112.7,50.1,112.7,112.1V135
	c0,62-50.7,113-112.7,113h-503c1.5,51,43.1,92,94.7,92h558.8c52.5,0,95.3-43.1,95.3-95.6v-537.5L177.4-565z M20.7-296h-200.9
	c-11.1,0-20.1-9.4-20.1-20.5c0-5.6,2.2-10.8,5.9-14.4c3.6-3.6,8.7-6.1,14.2-6.1H20.7c11.1,0,20.1,9.4,20.1,20.5
	C40.7-305.4,31.7-296,20.7-296z M21.6-417h-200.9c-11.1,0-20.1-9.2-20.1-20.3c0-5.6,2.2-10.4,5.9-14c3.6-3.6,8.7-5.7,14.2-5.7H21.6
	c11.1,0,20.1,8.9,20.1,20S32.7-417,21.6-417z M159-276v-221.7L381.3-276H159z"/>
<path class="st0" d="M267-67.7c0-39.9-32.4-72.3-72.3-72.3h-544.3c-39.9,0-72.3,32.4-72.3,72.3v195.3c0,39.9,32.4,72.3,72.3,72.3
	h544.3c39.9,0,72.3-32.4,72.3-72.3L267-67.7L267-67.7z M-95,77.6c-13,15.8-31,25.2-55.6,25.2c-52.6,0-73.9-34.6-73.9-71.4
	c0-39.4,24.6-75.8,74-75.8c18.8,0,37.6,7.2,52,21.4l-16.4,16.8c-9.4-9-23.4-14-35.6-14c-30,0-48.2,22.8-48.2,51.6
	c0,23,13.3,46.8,48.1,46.8c11,0,20.5-2.4,31.5-11.2V43h-36V19h60L-95,77.6L-95,77.6z M-47,100h-26V-40h26V100z M78-14H4v38h70v24H4
	v52h-26V-40H78V-14z"/>
<path class="st0" d="M177.4-565h-382.5c-52.5,0-94.9,41.5-94.9,94v283h503.3c62,0,112.7,50.1,112.7,112.1V135
	c0,62-50.7,113-112.7,113h-503c1.5,51,43.1,92,94.7,92h558.8c52.5,0,95.3-43.1,95.3-95.6v-537.5L177.4-565z M20.7-296h-200.9
	c-11.1,0-20.1-9.4-20.1-20.5c0-5.6,2.2-10.8,5.9-14.4c3.6-3.6,8.7-6.1,14.2-6.1H20.7c11.1,0,20.1,9.4,20.1,20.5
	C40.7-305.4,31.7-296,20.7-296z M21.6-417h-200.9c-11.1,0-20.1-9.2-20.1-20.3c0-5.6,2.2-10.4,5.9-14c3.6-3.6,8.7-5.7,14.2-5.7H21.6
	c11.1,0,20.1,8.9,20.1,20S32.7-417,21.6-417z M159-276v-221.7L381.3-276H159z"/>
<path class="st0" d="M-62-14h-40v50h40C-29,36-29-14-62-14z M-62-14h-40v50h40C-29,36-29-14-62-14z M267-67.7
	c0-39.9-32.4-72.3-72.3-72.3h-544.3c-39.9,0-72.3,32.4-72.3,72.3v195.3c0,39.9,32.4,72.3,72.3,72.3h544.3
	c39.9,0,72.3-32.4,72.3-72.3L267-67.7L267-67.7z M-149-13h-78v32h75v24h-75v32h78v26h-105V-39h105V-13z M-62,60h-40v41h-26V-39.4
	c22,0,44-0.2,66-0.2C6-39.6,6,60-62,60z M60.1,104.2c-28.6,0-50.6-8.8-61-34.4l22-11.4c6.2,15.4,22.4,22.2,39.4,22.2
	c16.6,0,32.2-5.8,32.2-21C92.7,46.4,78.9,41,60.3,39c-28.6-3.4-55-11-55-42.4c0-28.8,28.4-40.6,54.2-40.8c21.8,0,44.4,6.2,55,27.8
	l-21,10.8c-4.8-8-18-15.6-33.2-15.6c-19.6,0-29,8.2-29,18.6C31.3,9.6,45.7,13,62.5,15c29.2,3.6,56.4,11.2,56.4,44.6
	C118.9,90.8,91.3,104.2,60.1,104.2z M-62-14h-40v50h40C-29,36-29-14-62-14z"/>
<path class="st0" d="M177.4-565h-382.5c-52.5,0-94.9,41.5-94.9,94v283h503.3c62,0,112.7,50.1,112.7,112.1V135
	c0,62-50.7,113-112.7,113h-503c1.5,51,43.1,92,94.7,92h558.8c52.5,0,95.3-43.1,95.3-95.6v-537.5L177.4-565z M20.7-296h-200.9
	c-11.1,0-20.1-9.4-20.1-20.5c0-5.6,2.2-10.8,5.9-14.4c3.6-3.6,8.7-6.1,14.2-6.1H20.7c11.1,0,20.1,9.4,20.1,20.5
	C40.7-305.4,31.8-296,20.7-296z M21.6-417h-200.9c-11.1,0-20.1-9.2-20.1-20.3c0-5.6,2.2-10.4,5.9-14c3.6-3.6,8.7-5.7,14.2-5.7H21.6
	c11.1,0,20.1,8.9,20.1,20S32.7-417,21.6-417z M159-276v-221.7L381.3-276H159z"/>
<path class="st0" d="M267-67.7c0-39.9-32.4-72.3-72.3-72.3h-544.3c-39.9,0-72.3,32.4-72.3,72.3v195.3c0,39.9,32.4,72.3,72.3,72.3
	h544.3c39.9,0,72.3-32.4,72.3-72.3L267-67.7L267-67.7z M-144-15h-45v116h-26V-15h-45v-24h116V-15z M-3,101h-29.3l-35.8-52.6
	l-35.8,52.6H-134v-1.3l48.9-70l-46.9-68V-39h28.9l35,52.2l35-52.2H-4v0.7l-47.6,68l48.6,70V101z M120-15H75v116H49V-15H4v-24h116
	V-15z"/>
<path class="st0" d="M177.4-565h-382.5c-52.5,0-94.9,41.5-94.9,94v283h503.3c62,0,112.7,50.1,112.7,112.1V135
	c0,62-50.7,113-112.7,113h-503c1.5,51,43.1,92,94.7,92h558.8c52.5,0,95.3-43.1,95.3-95.6v-537.5L177.4-565z M20.7-296h-200.9
	c-11.1,0-20.1-9.4-20.1-20.5c0-5.6,2.2-10.8,5.9-14.4c3.6-3.6,8.7-6.1,14.2-6.1H20.7c11.1,0,20.1,9.4,20.1,20.5
	C40.8-305.4,31.8-296,20.7-296z M21.6-417h-200.9c-11.1,0-20.1-9.2-20.1-20.3c0-5.6,2.2-10.4,5.9-14c3.6-3.6,8.7-5.7,14.2-5.7H21.6
	c11.1,0,20.1,8.9,20.1,20S32.7-417,21.6-417z M159-276v-221.7L381.3-276H159z"/>
<path class="st0" d="M-181.1,29.3c0.6,22.8-12,45.7-43.8,45.7H-254v-89h29.1C-194.5-14-181.7,7.5-181.1,29.3z"/>
<path class="st0" d="M-69.7-18.3c-33,0-46.6,26.6-46,50.2c0.6,23,13,47.6,46,47.6s45.4-24.8,45.8-47.8
	C-23.5,8.1-36.7-18.3-69.7-18.3z M-69.7-18.3c-33,0-46.6,26.6-46,50.2c0.6,23,13,47.6,46,47.6s45.4-24.8,45.8-47.8
	C-23.5,8.1-36.7-18.3-69.7-18.3z M267-67.7c0-39.9-32.4-72.3-72.3-72.3h-544.3c-39.9,0-72.3,32.4-72.3,72.3v195.3
	c0,39.9,32.4,72.3,72.3,72.3h544.3c39.9,0,72.3-32.4,72.3-72.3L267-67.7L267-67.7z M-224.9,101H-280V-39h55.1
	c48,0,69.4,34.2,70,68.8C-154.3,65.2-175.9,101-224.9,101z M-69.7,103.7c-49.2,0-72-35.4-72-72.2s23.6-73.8,72-73.8
	c48.2,0,72.2,37,71.8,73.6C1.7,67.5-20.5,103.7-69.7,103.7z M91.7,103.7c-52,0-74-35.8-74.2-72.2C17.3-5.1,41.1-42.3,91.7-42.3
	c19,0,37,7.2,51.4,21.4l-17.6,17c-9.2-9-21.6-13.2-33.8-13.2c-33.8,0-48.4,25.2-48.2,48.6c0.2,23.2,13.6,47.4,48.2,47.4
	c12.2,0,26-5,35.2-14.2l18,18.2C130.5,97.1,111.9,103.7,91.7,103.7z M-69.7-18.3c-33,0-46.6,26.6-46,50.2c0.6,23,13,47.6,46,47.6
	s45.4-24.8,45.8-47.8C-23.5,8.1-36.7-18.3-69.7-18.3z"/>
<path class="st0" d="M177.1-565h-382.5c-52.5,0-94.6,41.5-94.6,94v283h503c62,0,113,50.1,113,112.1V135c0,62-51,113-113,113h-503
	c1.5,51,43.1,92,94.7,92h558.8c52.5,0,95.5-43.1,95.5-95.6v-537.5L177.1-565z M20.4-296h-200.9c-11.1,0-20.1-9.4-20.1-20.5
	c0-5.6,2.2-10.8,5.9-14.4c3.6-3.6,8.7-6.1,14.2-6.1H20.4c11.1,0,20.1,9.4,20.1,20.5C40.5-305.4,31.5-296,20.4-296z M21.3-417h-200.9
	c-11.1,0-20.1-9.2-20.1-20.3c0-5.6,2.2-10.4,5.9-14c3.6-3.6,8.7-5.7,14.2-5.7H21.3c11.1,0,20.1,8.9,20.1,20S32.4-417,21.3-417z
	 M159-276v-221.7L381-276H159z"/>
<path class="st0" d="M267-67.7c0-39.9-32.4-72.3-72.3-72.3h-544.3c-39.9,0-72.3,32.4-72.3,72.3v195.3c0,39.9,32.4,72.3,72.3,72.3
	h544.3c39.9,0,72.3-32.4,72.3-72.3L267-67.7L267-67.7z M-123,101h-29.6l-35.8-52.6l-35.8,52.6H-254v-1.4l48.9-70l-46.9-68V-39h28.6
	l35,52.2l35-52.2h29.4v0.6l-47.6,68l48.6,70V101z M-9,101h-98V-39h26V76h72V101z M62.6,104C34,104,12,95.2,1.6,69.6l22-11.4
	C29.8,73.6,46,80.4,63,80.4c16.6,0,32.2-5.8,32.2-21c0-13.2-13.8-18.6-32.4-20.6c-28.6-3.4-55-11-55-42.4
	c0-28.8,28.4-40.6,54.2-40.8c21.8,0,44.4,6.2,55,27.8L96-5.8c-4.8-8-18-15.6-33.2-15.6c-19.6,0-29,8.2-29,18.6
	c0,12.2,14.4,15.6,31.2,17.6c29.2,3.6,56.4,11.2,56.4,44.6C121.4,90.6,93.8,104,62.6,104z"/>
<path class="st0" d="M177.4-565h-382.5c-52.5,0-94.9,41.5-94.9,94v283h503.3c62,0,112.7,50.1,112.7,112.1V135
	c0,62-50.7,113-112.7,113h-503c1.5,51,43.1,92,94.7,92h558.8c52.5,0,95.2-43.1,95.2-95.6v-537.5L177.4-565z M20.7-296h-200.9
	c-11.1,0-20.1-9.4-20.1-20.5c0-5.6,2.2-10.8,5.9-14.4c3.6-3.6,8.7-6.1,14.2-6.1H20.7c11.1,0,20.1,9.4,20.1,20.5
	C40.8-305.4,31.8-296,20.7-296z M21.6-417h-200.9c-11.1,0-20.1-9.2-20.1-20.3c0-5.6,2.2-10.4,5.9-14c3.6-3.6,8.7-5.7,14.2-5.7H21.6
	c11.1,0,20.1,8.9,20.1,20S32.7-417,21.6-417z M159-276v-221.7L381.3-276H159z"/>
<path class="st0" d="M-185,35h-40v-49h40C-152-14-152,35-185,35z"/>
<path class="st0" d="M-50-14h-40v49h40C-16,35-17-14-50-14z M-50-14h-40v49h40C-16,35-17-14-50-14z M267-67.7
	c0-39.9-32.4-72.3-72.3-72.3h-544.3c-39.9,0-72.3,32.4-72.3,72.3v195.3c0,39.9,32.4,72.3,72.3,72.3h544.3
	c39.9,0,72.3-32.4,72.3-72.3L267-67.7L267-67.7z M-185,60h-40v41h-26V-39.5c22,0,44-0.2,66-0.2C-117-39.7-117,60-185,60z M-50,60
	h-40v41h-26V-39.5c22,0,44-0.2,66-0.2C18-39.7,18,60-50,60z M126-15H82v116H55V-15H11v-24h115V-15z M-50-14h-40v49h40
	C-16,35-17-14-50-14z"/>
<path class="st0" d="M177.4-565h-382.5c-52.5,0-94.9,41.5-94.9,94v283h503.3c62,0,112.7,50.1,112.7,112.1V135
	c0,62-50.7,113-112.7,113h-503c1.5,51,43.1,92,94.7,92h558.8c52.5,0,95.2-43.1,95.2-95.6v-537.5L177.4-565z M20.7-296h-200.9
	c-11.1,0-20.1-9.4-20.1-20.5c0-5.6,2.2-10.8,5.9-14.4c3.6-3.6,8.7-6.1,14.2-6.1H20.7c11.1,0,20.1,9.4,20.1,20.5
	C40.8-305.4,31.8-296,20.7-296z M21.6-417h-200.9c-11.1,0-20.1-9.2-20.1-20.3c0-5.6,2.2-10.4,5.9-14c3.6-3.6,8.7-5.7,14.2-5.7H21.6
	c11.1,0,20.1,8.9,20.1,20S32.7-417,21.6-417z M159-276v-221.7L381.3-276H159z"/>
<path class="st0" d="M267-67.7c0-39.9-32.4-72.3-72.3-72.3h-544.3c-39.9,0-72.3,32.4-72.3,72.3v195.3c0,39.9,32.4,72.3,72.3,72.3
	h544.3c39.9,0,72.3-32.4,72.3-72.3L267-67.7L267-67.7z M-229,102h-26V45h-69v57h-26V-38h26v59h69v-59h26V102z M-97-14h-44v116h-27
	V-14h-44v-24h115V-14z M67,102H41V0.1L-4.3,61h-5.2L-54-0.1V102h-27V-38h30.9l43.8,60.2L37.5-38H67V102z M191,102H92V-38h27V77h72
	V102z"/>
<path class="st0" d="M177.4-565h-382.5c-52.5,0-94.9,41.5-94.9,94v283h503.3c62,0,112.7,50.1,112.7,112.1V135
	c0,62-50.7,113-112.7,113h-503c1.5,51,43.1,92,94.7,92h558.8c52.5,0,95.2-43.1,95.2-95.6v-537.5L177.4-565z M20.7-296h-200.9
	c-11.1,0-20.1-9.4-20.1-20.5c0-5.6,2.2-10.8,5.9-14.4c3.6-3.6,8.7-6.1,14.2-6.1H20.7c11.1,0,20.1,9.4,20.1,20.5
	C40.8-305.4,31.8-296,20.7-296z M21.6-417h-200.9c-11.1,0-20.1-9.2-20.1-20.3c0-5.6,2.2-10.4,5.9-14c3.6-3.6,8.7-5.7,14.2-5.7H21.6
	c11.1,0,20.1,8.9,20.1,20S32.7-417,21.6-417z M159-276v-221.7L381.3-276H159z"/>
<path class="st0" d="M267-67.7c0-39.9-32.4-72.3-72.3-72.3h-544.3c-39.9,0-72.3,32.4-72.3,72.3v195.3c0,39.9,32.4,72.3,72.3,72.3
	h544.3c39.9,0,72.3-32.4,72.3-72.3L267-67.7L267-67.7z M-147,101h-29.3l-35.8-52.6l-35.8,52.6H-278v-1.3l48.9-70l-46.9-68V-39h28.9
	l35,52.2l35-52.2h29.1v0.7l-47.6,68l48.6,70V101z M17,101H-9V-0.9L-54.7,60h-5.2L-105-1.1V101h-26V-39h30.5l43.8,60.2L-12.9-39H17
	V101z M140,101H42V-39h26V76h72V101z"/>
<path class="st0" d="M177.4-565h-382.5c-52.5,0-94.9,41.5-94.9,94v283h503.3c62,0,112.7,50.1,112.7,112.1V135
	c0,62-50.7,113-112.7,113h-503c1.5,51,43.1,92,94.7,92h558.8c52.5,0,95.2-43.1,95.2-95.6v-537.5L177.4-565z M20.7-296h-200.9
	c-11.1,0-20.1-9.4-20.1-20.5c0-5.6,2.2-10.8,5.9-14.4c3.6-3.6,8.7-6.1,14.2-6.1H20.7c11.1,0,20.1,9.4,20.1,20.5
	C40.8-305.4,31.8-296,20.7-296z M21.6-417h-200.9c-11.1,0-20.1-9.2-20.1-20.3c0-5.6,2.2-10.4,5.9-14c3.6-3.6,8.7-5.7,14.2-5.7H21.6
	c11.1,0,20.1,8.9,20.1,20S32.7-417,21.6-417z M159-276v-221.7L381.3-276H159z"/>
<path class="st0" d="M267-67.7c0-39.9-32.4-72.3-72.3-72.3h-544.3c-39.9,0-72.3,32.4-72.3,72.3v195.3c0,39.9,32.4,72.3,72.3,72.3
	h544.3c39.9,0,72.3-32.4,72.3-72.3L267-67.7L267-67.7z M-201.9,97.7c-52,0-74-35.8-74.2-72.2c-0.2-36.6,23.6-73.8,74.2-73.8
	c19,0,37,7.2,51.4,21.4l-17.6,17c-9.2-9-21.6-13.2-33.8-13.2c-33.8,0-48.4,25.2-48.2,48.6c0.2,23.2,13.6,47.4,48.2,47.4
	c12.2,0,26-5,35.2-14.2l18,18.2C-163.1,91.1-181.7,97.7-201.9,97.7z M-78.7,98.1c-28.6,0-50.6-8.8-61-34.4l22-11.4
	c6.2,15.4,22.4,22.2,39.4,22.2c16.6,0,32.2-5.8,32.2-21c0-13.2-13.8-18.6-32.4-20.6c-28.6-3.4-55-11-55-42.4
	c0-28.8,28.4-40.6,54.2-40.8c21.8,0,44.4,6.2,55,27.8l-21,10.8c-4.8-8-18-15.6-33.2-15.6c-19.6,0-29,8.2-29,18.6
	c0,12.2,14.4,15.6,31.2,17.6c29.2,3.6,56.4,11.2,56.4,44.6C-19.9,84.7-47.5,98.1-78.7,98.1z M53.5,98.1c-28.6,0-50.6-8.8-61-34.4
	l22-11.4c6.2,15.4,22.4,22.2,39.4,22.2c16.6,0,32.2-5.8,32.2-21c0-13.2-13.8-18.6-32.4-20.6c-28.6-3.4-55-11-55-42.4
	c0-28.8,28.4-40.6,54.2-40.8c21.8,0,44.4,6.2,55,27.8l-21,10.8c-4.8-8-18-15.6-33.2-15.6c-19.6,0-29,8.2-29,18.6
	c0,12.2,14.4,15.6,31.2,17.6c29.2,3.6,56.4,11.2,56.4,44.6C112.3,84.7,84.7,98.1,53.5,98.1z"/>
<path class="st0" d="M177.4-565h-382.5c-52.5,0-94.9,41.5-94.9,94v283h503.3c62,0,112.7,50.1,112.7,112.1V135
	c0,62-50.7,113-112.7,113h-503c1.5,51,43.1,92,94.7,92h558.8c52.5,0,95.2-43.1,95.2-95.6v-537.5L177.4-565z M20.7-296h-200.9
	c-11.1,0-20.1-9.4-20.1-20.5c0-5.6,2.2-10.8,5.9-14.4c3.6-3.6,8.7-6.1,14.2-6.1H20.7c11.1,0,20.1,9.4,20.1,20.5
	C40.8-305.4,31.8-296,20.7-296z M21.6-417h-200.9c-11.1,0-20.1-9.2-20.1-20.3c0-5.6,2.2-10.4,5.9-14c3.6-3.6,8.7-5.7,14.2-5.7H21.6
	c11.1,0,20.1,8.9,20.1,20S32.7-417,21.6-417z M159-276v-221.7L381.3-276H159z"/>
<path class="st0" d="M-206,29h-40v-49h40C-173-20-173,29-206,29z"/>
<path class="st0" d="M267-67.7c0-39.9-32.4-72.3-72.3-72.3h-544.3c-39.9,0-72.3,32.4-72.3,72.3v195.3c0,39.9,32.4,72.3,72.3,72.3
	h544.3c39.9,0,72.3-32.4,72.3-72.3L267-67.7L267-67.7z M-206,54h-40v41h-26V-45.5c22,0,44-0.2,66-0.2C-138-45.7-138,54-206,54z
	 M-16,95h-26V38h-69v57h-26V-45h26v59h69v-59h26V95z M75,54H36v41H9V-45.5c22,0,44-0.2,66-0.2C144-45.7,144,54,75,54z M75-20H36v49
	h39C109,29,109-20,75-20z"/>
<path class="st0" d="M177.4-565h-382.5c-52.5,0-94.9,41.5-94.9,94v283h503.3c62,0,112.7,50.1,112.7,112.1V135
	c0,62-50.7,113-112.7,113h-503c1.5,51,43.1,92,94.7,92h558.8c52.5,0,95.2-43.1,95.2-95.6v-537.5L177.4-565z M20.7-296h-200.9
	c-11.1,0-20.1-9.4-20.1-20.5c0-5.6,2.2-10.8,5.9-14.4c3.6-3.6,8.7-6.1,14.2-6.1H20.7c11.1,0,20.1,9.4,20.1,20.5
	C40.8-305.4,31.8-296,20.7-296z M21.6-417h-200.9c-11.1,0-20.1-9.2-20.1-20.3c0-5.6,2.2-10.4,5.9-14c3.6-3.6,8.7-5.7,14.2-5.7H21.6
	c11.1,0,20.1,8.9,20.1,20S32.7-417,21.6-417z M159-276v-221.7L381.3-276H159z"/>
<path class="st0" d="M267-67.7c0-39.9-32.4-72.3-72.3-72.3h-544.3c-39.9,0-72.3,32.4-72.3,72.3v195.3c0,39.9,32.4,72.3,72.3,72.3
	h544.3c39.9,0,72.3-32.4,72.3-72.3L267-67.7L267-67.7z M-225.1,98.1c-28.6,0-50.6-8.8-61-34.4l22-11.4c6.2,15.4,22.4,22.2,39.4,22.2
	c16.6,0,32.2-5.8,32.2-21c0-13.2-13.8-18.6-32.4-20.6c-28.6-3.4-55-11-55-42.4c0-28.8,28.4-40.6,54.2-40.8c21.8,0,44.4,6.2,55,27.8
	l-21,10.8c-4.8-8-18-15.6-33.2-15.6c-19.6,0-29,8.2-29,18.6c0,12.2,14.4,15.6,31.2,17.6c29.2,3.6,56.4,11.2,56.4,44.6
	C-166.3,84.7-193.9,98.1-225.1,98.1z M-69.9,95h-27.4l-58.2-140h29.6l42.2,109l42.4-109h29.6L-69.9,95z M128,72.5
	c-13,15.8-30.8,25.2-55.5,25.2c-52.6,0-73.7-34.6-73.7-71.4c0-39.4,24.6-75.8,74-75.8c18.8,0,37.6,7.2,52,21.4l-16.4,16.8
	c-9.4-9-23.4-14-35.6-14c-30,0-48.2,22.8-48.2,51.6c0,23,13.2,46.8,48,46.8c11,0,20.4-2.4,31.4-11.2V37H68V14h60L128,72.5L128,72.5z
	"/>
<path class="st0" d="M177.1-565h-382.5c-52.5,0-94.6,41.5-94.6,94v283h503c62,0,113,50.1,113,112.1V135c0,62-51,113-113,113h-503
	c1.5,51,43.1,92,94.7,92h558.8c52.5,0,95.5-43.1,95.5-95.6v-537.5L177.1-565z M20.4-296h-200.9c-11.1,0-20.1-9.4-20.1-20.5
	c0-5.6,2.2-10.8,5.9-14.4c3.6-3.6,8.7-6.1,14.2-6.1H20.4c11.1,0,20.1,9.4,20.1,20.5C40.5-305.4,31.5-296,20.4-296z M21.3-417h-200.9
	c-11.1,0-20.1-9.2-20.1-20.3c0-5.6,2.2-10.4,5.9-14c3.6-3.6,8.7-5.7,14.2-5.7H21.3c11.1,0,20.1,8.9,20.1,20S32.4-417,21.3-417z
	 M159-276v-221.7L381-276H159z"/>
<path class="st0" d="M267-67.7c0-39.9-32.4-72.3-72.3-72.3h-544.3c-39.9,0-72.3,32.4-72.3,72.3v195.3c0,39.9,32.4,72.3,72.3,72.3
	h544.3c39.9,0,72.3-32.4,72.3-72.3L267-67.7L267-67.7z M-89,34.7c0,36.2-23,63-61.6,63C-186.4,97.6-212,76-212,37h26
	c0,24,11.8,35.8,35.6,35.8c24,0,35.4-17,35.4-38.2V-21h-43v-24h69V34.7z M-11.2,98.1c-28.6,0-50.6-8.8-61-34.4l22-11.4
	c6.2,15.4,22.4,22.2,39.4,22.2c16.6,0,32.2-5.8,32.2-21c0-13.2-13.8-18.6-32.4-20.6c-28.6-3.4-55-11-55-42.4
	c0-28.8,28.4-40.6,54.2-40.8c21.8,0,44.4,6.2,55,27.8l-21,10.8c-4.8-8-18-15.6-33.2-15.6c-19.6,0-29,8.2-29,18.6
	C-40,3.5-25.6,6.9-8.8,8.9c29.2,3.6,56.4,11.2,56.4,44.6C47.6,84.7,20,98.1-11.2,98.1z"/>
<path class="st0" d="M177.4-565h-382.5c-52.5,0-94.9,41.5-94.9,94v283h503.3c62,0,112.7,50.1,112.7,112.1V135
	c0,62-50.7,113-112.7,113h-503c1.5,51,43.1,92,94.7,92h558.8c52.5,0,95.2-43.1,95.2-95.6v-537.5L177.4-565z M20.7-296h-200.9
	c-11.1,0-20.1-9.4-20.1-20.5c0-5.6,2.2-10.8,5.9-14.4c3.6-3.6,8.7-6.1,14.2-6.1H20.7c11.1,0,20.1,9.4,20.1,20.5
	C40.8-305.4,31.8-296,20.7-296z M21.6-417h-200.9c-11.1,0-20.1-9.2-20.1-20.3c0-5.6,2.2-10.4,5.9-14c3.6-3.6,8.7-5.7,14.2-5.7H21.6
	c11.1,0,20.1,8.9,20.1,20S32.7-417,21.6-417z M159-276v-221.7L381.3-276H159z"/>
<polygon class="st0" points="-104.3,-15.6 -78.3,44 -130.3,44 "/>
<path class="st0" d="M267-67.7c0-39.9-32.4-72.3-72.3-72.3h-544.3c-39.9,0-72.3,32.4-72.3,72.3v195.3c0,39.9,32.4,72.3,72.3,72.3
	h544.3c39.9,0,72.3-32.4,72.3-72.3L267-67.7L267-67.7z M-55.9,95l-11.8-27h-73.2l-12,27h-28.6l62.8-140h28.8l62.8,140H-55.9z M9,95
	h-26V-45H9V95z"/>
<path class="st0" d="M177.4-565h-382.5c-52.5,0-94.9,41.5-94.9,94v283h503.3c62,0,112.7,50.1,112.7,112.1V135
	c0,62-50.7,113-112.7,113h-503c1.5,51,43.1,92,94.7,92h558.8c52.5,0,95.2-43.1,95.2-95.6v-537.5L177.4-565z M20.7-296h-200.9
	c-11.1,0-20.1-9.4-20.1-20.5c0-5.6,2.2-10.8,5.9-14.4c3.6-3.6,8.7-6.1,14.2-6.1H20.7c11.1,0,20.1,9.4,20.1,20.5
	C40.8-305.4,31.8-296,20.7-296z M21.6-417h-200.9c-11.1,0-20.1-9.2-20.1-20.3c0-5.6,2.2-10.4,5.9-14c3.6-3.6,8.7-5.7,14.2-5.7H21.6
	c11.1,0,20.1,8.9,20.1,20S32.7-417,21.6-417z M159-276v-221.7L381.3-276H159z"/>
<path class="st0" d="M-189.3,57.2c0,13.2-15.4,16.8-26.2,16.8H-256V38h40.5C-204.7,38-189.3,44.6-189.3,57.2z"/>
<path class="st0" d="M-215.5,15H-256v-32h40.5c16.8,0,22,10.7,22,17.1C-193.5,8.1-198.9,15-215.5,15z"/>
<path class="st0" d="M267-67.7c0-39.9-32.4-72.3-72.3-72.3h-544.3c-39.9,0-72.3,32.4-72.3,72.3v195.3c0,39.9,32.4,72.3,72.3,72.3
	h544.3c39.9,0,72.3-32.4,72.3-72.3L267-67.7L267-67.7z M-215.5,99H-282V-41h66.5c27.6,0,48.2,12.1,48.2,40.3
	c0,10.8-5.2,21.1-18.2,26.9c16.4,5,22.4,22.6,22.4,31.4C-163.1,88.8-186.5,99-215.5,99z M4,99h-27V-2.9L-68.1,58h-5.2L-118-3.1V99
	h-27V-41h31.1l43.8,60.2L-26.3-41H4V99z M94,58H55v41H28V-41.5c22,0,44-0.2,66-0.2C163-41.7,163,58,94,58z M94-16H55v49h39
	C128,33,128-16,94-16z"/>
<path class="st0" d="M177.4-565h-382.5c-52.5,0-94.9,41.5-94.9,94v283h503.3c62,0,112.7,50.1,112.7,112.1V135
	c0,62-50.7,113-112.7,113h-503c1.5,51,43.1,92,94.7,92h558.8c52.5,0,95.2-43.1,95.2-95.6v-537.5L177.4-565z M20.7-296h-200.9
	c-11.1,0-20.1-9.4-20.1-20.5c0-5.6,2.2-10.8,5.9-14.4c3.6-3.6,8.7-6.1,14.2-6.1H20.7c11.1,0,20.1,9.4,20.1,20.5
	C40.8-305.4,31.8-296,20.7-296z M21.6-417h-200.9c-11.1,0-20.1-9.2-20.1-20.3c0-5.6,2.2-10.4,5.9-14c3.6-3.6,8.7-5.7,14.2-5.7H21.6
	c11.1,0,20.1,8.9,20.1,20S32.7-417,21.6-417z M159-276v-221.7L381.3-276H159z"/>
<path class="st0" d="M-45-22h-40v49h40C-11,27-12-22-45-22z M-45-22h-40v49h40C-11,27-12-22-45-22z M267-67.7
	c0-39.9-32.4-72.3-72.3-72.3h-544.3c-39.9,0-72.3,32.4-72.3,72.3v195.3c0,39.9,32.4,72.3,72.3,72.3h544.3
	c39.9,0,72.3-32.4,72.3-72.3L267-67.7L267-67.7z M-136,93h-26V-8.9L-207.7,52h-5.2L-258-9.1V93h-26V-47h30.5l43.8,60.2l43.8-60.2
	h29.9V93z M-45,52h-40v41h-26V-47.5c22,0,44-0.2,66-0.2C23-47.7,23,52-45,52z M73.9,94.7c-26.6,0-57-10.7-57.2-42.7h26.6
	c0,14,19.4,19.2,30.8,19.2c13.4,0,31.2-5.5,31.2-20.5c0-8.4-4.6-18.6-29.8-18.6H53V10h20.9c14.2,0,29.2-3.9,29.4-16.9
	c0-8-6.4-18.4-28.8-18.4C62.1-25.3,45.3-21,45.3-8H18.9c0-30,30-41.4,55.8-41.4c26.4,0,54.8,12.7,55,42.5c0,11-7.2,23.8-19.4,27.6
	c13.4,4.4,22.8,17.7,22.8,29.5C133.1,84.4,100.9,94.7,73.9,94.7z M-45-22h-40v49h40C-11,27-12-22-45-22z"/>
<path class="st0" d="M177.4-565h-382.5c-52.5,0-94.9,41.5-94.9,94v283h503.3c62,0,112.7,50.1,112.7,112.1V135
	c0,62-50.7,113-112.7,113h-503c1.5,51,43.1,92,94.7,92h558.8c52.5,0,95.2-43.1,95.2-95.6v-537.5L177.4-565z M20.7-296h-200.9
	c-11.1,0-20.1-9.4-20.1-20.5c0-5.6,2.2-10.8,5.9-14.4c3.6-3.6,8.7-6.1,14.2-6.1H20.7c11.1,0,20.1,9.4,20.1,20.5
	C40.8-305.4,31.8-296,20.7-296z M21.6-417h-200.9c-11.1,0-20.1-9.2-20.1-20.3c0-5.6,2.2-10.4,5.9-14c3.6-3.6,8.7-5.7,14.2-5.7H21.6
	c11.1,0,20.1,8.9,20.1,20S32.7-417,21.6-417z M159-276v-221.7L381.3-276H159z"/>
<polygon class="st0" points="-164.3,-15.6 -138.3,44 -190.3,44 "/>
<path class="st0" d="M267-67.7c0-39.9-32.4-72.3-72.3-72.3h-544.3c-39.9,0-72.3,32.4-72.3,72.3v195.3c0,39.9,32.4,72.3,72.3,72.3
	h544.3c39.9,0,72.3-32.4,72.3-72.3L267-67.7L267-67.7z M-115.9,95l-11.8-27h-73.2l-12,27h-28.6l62.8-140h28.8l62.8,140H-115.9z
	 M-22.1,95h-27.4l-58.2-140h29.6l42.2,109L6.5-45h29.6L-22.1,95z M78,95H52V-45h26V95z"/>
<g>
	<path d="M19.7,2h-11C7.2,2,6,3.2,6,4.7v8.1h14.4c1.8,0,3.2,1.4,3.2,3.2v6.1c0,1.8-1.5,3.2-3.2,3.2H6c0,1.5,1.2,2.6,2.7,2.6h16
		c1.5,0,2.7-1.2,2.7-2.7V9.8L19.7,2z M15.2,9.7H9.4c-0.3,0-0.6-0.3-0.6-0.6C8.9,9,8.9,8.8,9,8.7c0.1-0.1,0.2-0.2,0.4-0.2h5.8
		c0.3,0,0.6,0.3,0.6,0.6C15.8,9.5,15.5,9.7,15.2,9.7z M15.2,6.3H9.5C9.1,6.3,8.9,6,8.9,5.7c0-0.2,0.1-0.3,0.2-0.4
		c0.1-0.1,0.2-0.2,0.4-0.2h5.8c0.3,0,0.6,0.3,0.6,0.6C15.8,6,15.6,6.3,15.2,6.3z M19.2,10.3V3.9l6.4,6.4H19.2z"/>
	<path d="M22.3,16.3c0-1.1-0.9-2.1-2.1-2.1H4.6c-1.1,0-2.1,0.9-2.1,2.1v5.6C2.5,23,3.4,24,4.6,24h15.6c1.1,0,2.1-0.9,2.1-2.1
		L22.3,16.3L22.3,16.3z M11.6,17.4l-2.1,3h2.1V21H8.4v-0.5l2.1-2.8h-2V17h3.1V17.4z M12.8,21h-0.7v-4h0.7V21z M15.4,19.9h-1.1V21
		h-0.7v-4c0.6,0,1.3,0,1.9,0C17.4,17,17.4,19.9,15.4,19.9z M15.4,17.7h-1.1v1.4h1.1C16.4,19.1,16.4,17.7,15.4,17.7z"/>
</g>
<path class="st0" d="M177.4-565h-382.5c-52.5,0-94.9,41.5-94.9,94v283h503.3c62,0,112.7,50.1,112.7,112.1V135
	c0,62-50.7,113-112.7,113h-503c1.5,51,43.1,92,94.7,92h558.8c52.5,0,95.2-43.1,95.2-95.6v-537.5L177.4-565z M20.7-296h-200.9
	c-11.1,0-20.1-9.4-20.1-20.5c0-5.6,2.2-10.8,5.9-14.4c3.6-3.6,8.7-6.1,14.2-6.1H20.7c11.1,0,20.1,9.4,20.1,20.5
	C40.8-305.4,31.8-296,20.7-296z M21.6-417h-200.9c-11.1,0-20.1-9.2-20.1-20.3c0-5.6,2.2-10.4,5.9-14c3.6-3.6,8.7-5.7,14.2-5.7H21.6
	c11.1,0,20.1,8.9,20.1,20S32.7-417,21.6-417z M159-276v-221.7L381.3-276H159z"/>
<path class="st0" d="M-148.1,26.3c0.6,22.8-12,45.7-43.8,45.7H-221v-89h29.1C-161.5-17-148.7,4.5-148.1,26.3z"/>
<path class="st0" d="M267-67.7c0-39.9-32.4-72.3-72.3-72.3h-544.3c-39.9,0-72.3,32.4-72.3,72.3v195.3c0,39.9,32.4,72.3,72.3,72.3
	h544.3c39.9,0,72.3-32.4,72.3-72.3L267-67.7L267-67.7z M-191.9,98H-247V-42h55.1c48,0,69.4,34.2,70,68.8
	C-121.3,62.2-142.9,98-191.9,98z M-6,98h-99V-42h27V73h72V98z M111,98H12V-42h27V73h72V98z"/>
<path class="st0" d="M177.4-565h-382.5c-52.5,0-94.9,41.5-94.9,94v283h503.3c62,0,112.7,50.1,112.7,112.1V135
	c0,62-50.7,113-112.7,113h-503c1.5,51,43.1,92,94.7,92h558.8c52.5,0,95.2-43.1,95.2-95.6v-537.5L177.4-565z M20.7-296h-200.9
	c-11.1,0-20.1-9.4-20.1-20.5c0-5.6,2.2-10.8,5.9-14.4c3.6-3.6,8.7-6.1,14.2-6.1H20.7c11.1,0,20.1,9.4,20.1,20.5
	C40.8-305.4,31.8-296,20.7-296z M21.6-417h-200.9c-11.1,0-20.1-9.2-20.1-20.3c0-5.6,2.2-10.4,5.9-14c3.6-3.6,8.7-5.7,14.2-5.7H21.6
	c11.1,0,20.1,8.9,20.1,20S32.7-417,21.6-417z M159-276v-221.7L381.3-276H159z"/>
<path class="st0" d="M267-67.7c0-39.9-32.4-72.3-72.3-72.3h-544.3c-39.9,0-72.3,32.4-72.3,72.3v195.3c0,39.9,32.4,72.3,72.3,72.3
	h544.3c39.9,0,72.3-32.4,72.3-72.3L267-67.7L267-67.7z M-163-17h-74v39h70v24h-70v52h-26V-42h100V-17z M-46,98h-99V-42h27V73h72V98z
	 M83.9,98L72.1,71H-1.1l-12,27h-28.6L21.1-42h28.8l62.8,140H83.9z M9.5,47h52l-26-59.6L9.5,47z"/>
<path class="st0" d="M177.4-565h-382.5c-52.5,0-94.9,41.5-94.9,94v283h503.3c62,0,112.7,50.1,112.7,112.1V135
	c0,62-50.7,113-112.7,113h-503c1.5,51,43.1,92,94.7,92h558.8c52.5,0,95.2-43.1,95.2-95.6v-537.5L177.4-565z M20.7-296h-200.9
	c-11.1,0-20.1-9.4-20.1-20.5c0-5.6,2.2-10.8,5.9-14.4c3.6-3.6,8.7-6.1,14.2-6.1H20.7c11.1,0,20.1,9.4,20.1,20.5
	C40.8-305.4,31.8-296,20.7-296z M21.6-417h-200.9c-11.1,0-20.1-9.2-20.1-20.3c0-5.6,2.2-10.4,5.9-14c3.6-3.6,8.7-5.7,14.2-5.7H21.6
	c11.1,0,20.1,8.9,20.1,20S32.7-417,21.6-417z M159-276v-221.7L381.3-276H159z"/>
<path class="st0" d="M-66.1-21.3c-33,0-46.6,26.6-46,50.2c0.6,23,13,47.6,46,47.6s45.4-24.8,45.8-47.8
	C-19.9,5.1-33.1-21.3-66.1-21.3z M-66.1-21.3c-33,0-46.6,26.6-46,50.2c0.6,23,13,47.6,46,47.6s45.4-24.8,45.8-47.8
	C-19.9,5.1-33.1-21.3-66.1-21.3z M267-67.7c0-39.9-32.4-72.3-72.3-72.3h-544.3c-39.9,0-72.3,32.4-72.3,72.3v195.3
	c0,39.9,32.4,72.3,72.3,72.3h544.3c39.9,0,72.3-32.4,72.3-72.3L267-67.7L267-67.7z M-157,98h-26V-3.9L-228.7,57h-5.2L-279-4.1V98
	h-26V-42h30.5l43.8,60.2l43.8-60.2h29.9V98z M-66.1,100.7c-49.2,0-72-35.4-72-72.2s23.6-73.8,72-73.8c48.2,0,72.2,37,71.8,73.6
	C5.3,64.5-16.9,100.7-66.1,100.7z M94.7,98H67.3L9.1-42h29.6L80.9,67l42.4-109h29.6L94.7,98z M-66.1-21.3c-33,0-46.6,26.6-46,50.2
	c0.6,23,13,47.6,46,47.6s45.4-24.8,45.8-47.8C-19.9,5.1-33.1-21.3-66.1-21.3z"/>
<path class="st0" d="M177.4-565h-382.5c-52.5,0-94.9,41.4-94.9,94v283h503.3c62,0,112.7,50,112.7,112.1V135c0,62-50.7,113-112.7,113
	h-503c1.5,51,43.1,92,94.7,92h558.8c52.5,0,95.2-43.1,95.2-95.6v-537.5L177.4-565z M20.7-296h-200.9c-11.1,0-20.1-9.4-20.1-20.5
	c0-5.6,2.2-10.8,5.9-14.4c3.6-3.6,8.7-6.1,14.2-6.1H20.7c11.1,0,20.1,9.4,20.1,20.5C40.8-305.4,31.8-296,20.7-296z M21.6-417h-200.9
	c-11.1,0-20.1-9.2-20.1-20.3c0-5.6,2.2-10.4,5.9-14c3.6-3.6,8.7-5.7,14.2-5.7H21.6c11.1,0,20.1,8.9,20.1,20S32.7-417,21.6-417z
	 M159-276v-221.7L381.3-276H159z"/>
<path class="st0" d="M267-67.7c0-39.9-32.4-72.3-72.3-72.3h-544.3c-39.9,0-72.3,32.4-72.3,72.3v195.3c0,39.9,32.4,72.3,72.3,72.3
	h544.3c39.9,0,72.3-32.4,72.3-72.3L267-67.7L267-67.7z M-183.6,100H-206l-17.4-44.1l-14.8-44.3l-14.6,44.7l-17,43.7h-22.4l-51.4-140
	h29.6l33,101l34-101h17.2l35,101l32-101h29.6L-183.6,100z M31,100H5V-1.7L-40.6,60h-5.2L-91-1.9V100h-26V-40h30.6l43.8,60.2L1.2-40
	H31V100z M132.2,101h-27.4L46.6-40h29.6l42.2,109l42.4-109h29.6L132.2,101z"/>
<path class="st0" d="M177.4-565h-382.5c-52.5,0-94.9,41.4-94.9,94v283h503.3c62,0,112.7,50,112.7,112.1V135c0,62-50.7,113-112.7,113
	h-503c1.5,51,43.1,92,94.7,92h558.8c52.5,0,95.2-43.1,95.2-95.6v-537.5L177.4-565z M20.7-296h-200.9c-11.1,0-20.1-9.4-20.1-20.5
	c0-5.6,2.2-10.8,5.9-14.4c3.6-3.6,8.7-6.1,14.2-6.1H20.7c11.1,0,20.1,9.4,20.1,20.5C40.8-305.4,31.8-296,20.7-296z M21.6-417h-200.9
	c-11.1,0-20.1-9.2-20.1-20.3c0-5.6,2.2-10.4,5.9-14c3.6-3.6,8.7-5.7,14.2-5.7H21.6c11.1,0,20.1,8.9,20.1,20S32.7-417,21.6-417z
	 M159-276v-221.7L381.3-276H159z"/>
<path class="st0" d="M-60-18h-39v50h39C-26,32-26-18-60-18z M-60-18h-39v50h39C-26,32-26-18-60-18z M267-67.7
	c0-39.9-32.4-72.3-72.3-72.3h-544.3c-39.9,0-72.3,32.4-72.3,72.3v195.3c0,39.9,32.4,72.3,72.3,72.3h544.3
	c39.9,0,72.3-32.4,72.3-72.3L267-67.7L267-67.7z M-151,97h-26V-4.7L-222.4,57h-5.2L-272-4.9V97h-27V-43h30.8l43.8,60.2l43.8-60.2
	h29.6V97z M-60,56h-39v41h-27V-43.3c22,0,44-0.2,66-0.2C9-43.5,9,56-60,56z M134,74.7c-14,15.8-31.3,25.2-55.9,25.2
	C25.5,99.9,4,65.3,4,28.5c0-39.4,24.6-75.8,74-75.8c18.8,0,37.6,7.2,52,21.4L113.6-9.1c-9.4-9-23.4-14-35.6-14
	c-30,0-48.2,22.8-48.2,51.6c0,23,13.2,46.8,48,46.8c11,0,20.3-2.4,31.3-11.2V40H74V16h60V74.7z M-60-18h-39v50h39
	C-26,32-26-18-60-18z"/>
<path class="st0" d="M177.4-565h-382.5c-52.5,0-94.9,41.4-94.9,94v283h503.3c62,0,112.7,50,112.7,112.1V135c0,62-50.7,113-112.7,113
	h-503c1.5,51,43.1,92,94.7,92h558.8c52.5,0,95.2-43.1,95.2-95.6v-537.5L177.4-565z M20.7-296h-200.9c-11.1,0-20.1-9.4-20.1-20.5
	c0-5.6,2.2-10.8,5.9-14.4c3.6-3.6,8.7-6.1,14.2-6.1H20.7c11.1,0,20.1,9.4,20.1,20.5C40.8-305.4,31.8-296,20.7-296z M21.6-417h-200.9
	c-11.1,0-20.1-9.2-20.1-20.3c0-5.6,2.2-10.4,5.9-14c3.6-3.6,8.7-5.7,14.2-5.7H21.6c11.1,0,20.1,8.9,20.1,20S32.7-417,21.6-417z
	 M159-276v-221.7L381.3-276H159z"/>
<path class="st0" d="M267-67.7c0-39.9-32.4-72.3-72.3-72.3h-544.3c-39.9,0-72.3,32.4-72.3,72.3v195.3c0,39.9,32.4,72.3,72.3,72.3
	h544.3c39.9,0,72.3-32.4,72.3-72.3L267-67.7L267-67.7z M-213.6,102.9c-52,0-74-35.8-74.2-72.2c-0.2-36.6,23.6-73.8,74.2-73.8
	c19,0,37,7.2,51.4,21.4l-17.6,17c-9.2-9-21.6-13.2-33.8-13.2c-33.8,0-48.4,25.2-48.2,48.6c0.2,23.2,13.6,47.4,48.2,47.4
	c12.2,0,26-5,35.2-14.2l18,18.2C-174.8,96.3-193.4,102.9-213.6,102.9z M-90.4,103.3c-28.6,0-50.6-8.8-61-34.4l22-11.4
	c6.2,15.4,22.4,22.2,39.4,22.2c16.6,0,32.2-5.8,32.2-21c0-13.2-13.8-18.6-32.4-20.6c-28.6-3.4-55-11-55-42.4
	c0-28.8,28.4-40.6,54.2-40.8c21.8,0,44.4,6.2,55,27.8L-57-6.5c-4.8-8-18-15.6-33.2-15.6c-19.6,0-29,8.2-29,18.6
	c0,12.2,14.4,15.6,31.2,17.6c29.2,3.6,56.4,11.2,56.4,44.6C-31.6,89.9-59.2,103.3-90.4,103.3z M64.8,101H37.4L-20.8-40H8.8L51,69
	L93.4-40H123L64.8,101z"/>
<path class="st0" d="M177.4-565h-382.5c-52.5,0-94.9,41.4-94.9,94v283h503.3c62,0,112.7,50,112.7,112.1V135c0,62-50.7,113-112.7,113
	h-503c1.5,51,43.1,92,94.7,92h558.8c52.5,0,95.2-43.1,95.2-95.6v-537.5L177.4-565z M20.7-296h-200.9c-11.1,0-20.1-9.4-20.1-20.5
	c0-5.6,2.2-10.8,5.9-14.4c3.6-3.6,8.7-6.1,14.2-6.1H20.7c11.1,0,20.1,9.4,20.1,20.5C40.8-305.4,31.8-296,20.7-296z M21.6-417h-200.9
	c-11.1,0-20.1-9.2-20.1-20.3c0-5.6,2.2-10.4,5.9-14c3.6-3.6,8.7-5.7,14.2-5.7H21.6c11.1,0,20.1,8.9,20.1,20S32.7-417,21.6-417z
	 M159-276v-221.7L381.3-276H159z"/>
<path class="st0" d="M-217,27h-40v-45h40c16.6,0,24,11.3,24,22.5S-200.2,27-217,27z"/>
<path class="st0" d="M-86-13.6L-112,46h52L-86-13.6z M-86-13.6L-112,46h52L-86-13.6z M267-67.7c0-39.9-32.4-72.3-72.3-72.3h-544.3
	c-39.9,0-72.3,32.4-72.3,72.3v195.3c0,39.9,32.4,72.3,72.3,72.3h544.3c39.9,0,72.3-32.4,72.3-72.3L267-67.7L267-67.7z M-37.6,97
	l-11.8-26h-73.2l-12,26H-160v-2.1l-1.6-1.9l-1.6,4H-191l-40.8-47H-257v47h-27V-43.5c22,0,44.6,0.2,66.8,0.2
	c33,0.2,50.5,22.2,50.5,46.4c0,19.2-8.8,38.6-35.4,44l40.6,45.6l0,0.2L-100.4-43h28.8L-8.8,97H-37.6z M127,97H95.8L55,50H29v47H3
	V-43.5c22,0,44.5,0.2,66.7,0.2c33,0.2,50.5,22.2,50.5,46.4c0,19.2-8.9,38.6-35.5,44L127,94.9L127,97L127,97z M93.8,4.5
	c0-11.2-7.4-22.5-24-22.5H29v45h40.8C86.6,27,93.8,15.7,93.8,4.5z M-112,46h52l-26-59.6L-112,46z"/>
<path class="st0" d="M-161.6,92.8L-161.6,92.8l0.1,0.1l-1.6,4h3.2v-2.1L-161.6,92.8z"/>
<path class="st0" d="M-161.6,92.8l0.3,0l0.3,0v0l-2.2,4.2h3.2v-2.1L-161.6,92.8z"/>
<path class="st0" d="M177.4-565h-382.5c-52.5,0-94.9,41.4-94.9,94v283h503.3c62,0,112.7,50,112.7,112.1V135c0,62-50.7,113-112.7,113
	h-503c1.5,51,43.1,92,94.7,92h558.8c52.5,0,95.2-43.1,95.2-95.6v-537.5L177.4-565z M20.7-296h-200.9c-11.1,0-20.1-9.4-20.1-20.5
	c0-5.6,2.2-10.8,5.9-14.4c3.6-3.6,8.7-6.1,14.2-6.1H20.7c11.1,0,20.1,9.4,20.1,20.5C40.8-305.4,31.8-296,20.7-296z M21.6-417h-200.9
	c-11.1,0-20.1-9.2-20.1-20.3c0-5.6,2.2-10.4,5.9-14c3.6-3.6,8.7-5.7,14.2-5.7H21.6c11.1,0,20.1,8.9,20.1,20S32.7-417,21.6-417z
	 M159-276v-221.7L381.3-276H159z"/>
<path class="st0" d="M267-67.7c0-39.9-32.4-72.3-72.3-72.3h-544.3c-39.9,0-72.3,32.4-72.3,72.3v195.3c0,39.9,32.4,72.3,72.3,72.3
	h544.3c39.9,0,72.3-32.4,72.3-72.3L267-67.7L267-67.7z M-168-14h-78v32h76v25h-76v31h78v26h-104V-40h104V-14z M-22,100h-29.2
	L-87,47.4l-35.8,52.6H-153v-1.1l48.9-70l-46.9-68V-40h29l35,52.2L-52-40h29v0.9l-47.6,68l48.6,70V100z M98-14H20v32h75v25H20v31h78
	v26H-7V-40H98V-14z"/>
<path class="st0" d="M177.4-565h-382.5c-52.5,0-94.9,41.4-94.9,94v283h503.3c62,0,112.7,50,112.7,112.1V135c0,62-50.7,113-112.7,113
	h-503c1.5,51,43.1,92,94.7,92h558.8c52.5,0,95.2-43.1,95.2-95.6v-537.5L177.4-565z M20.7-296h-200.9c-11.1,0-20.1-9.4-20.1-20.5
	c0-5.6,2.2-10.8,5.9-14.4c3.6-3.6,8.7-6.1,14.2-6.1H20.7c11.1,0,20.1,9.4,20.1,20.5C40.8-305.4,31.8-296,20.7-296z M21.6-417h-200.9
	c-11.1,0-20.1-9.2-20.1-20.3c0-5.6,2.2-10.4,5.9-14c3.6-3.6,8.7-5.7,14.2-5.7H21.6c11.1,0,20.1,8.9,20.1,20S32.7-417,21.6-417z
	 M159-276v-221.7L381.3-276H159z"/>
<path class="st0" d="M-54-18h-39v50h39C-20,32-20-18-54-18z M-54-18h-39v50h39C-20,32-20-18-54-18z M267-67.7
	c0-39.9-32.4-72.3-72.3-72.3h-544.3c-39.9,0-72.3,32.4-72.3,72.3v195.3c0,39.9,32.4,72.3,72.3,72.3h544.3
	c39.9,0,72.3-32.4,72.3-72.3L267-67.7L267-67.7z M-145,97h-26V-4.7L-216.4,57h-5.2L-266-4.9V97h-27V-43h30.8l43.8,60.2l43.8-60.2
	h29.6V97z M-54,56h-39v41h-27V-43.3c22,0,44-0.2,66-0.2C15-43.5,15,56-54,56z M131,71h-16v26H89V71H14.4L12,43.8L75-43h40v88h16V71z
	 M89,45v-65.3L41.8,45H89z M-54-18h-39v50h39C-20,32-20-18-54-18z"/>
<path class="st0" d="M177.4-565h-382.5c-52.5,0-94.9,41.4-94.9,94v283h503.3c62,0,112.7,50,112.7,112.1V135c0,62-50.7,113-112.7,113
	h-503c1.5,51,43.1,92,94.7,92h558.8c52.5,0,95.2-43.1,95.2-95.6v-537.5L177.4-565z M20.7-296h-200.9c-11.1,0-20.1-9.4-20.1-20.5
	c0-5.6,2.2-10.8,5.9-14.4c3.6-3.6,8.7-6.1,14.2-6.1H20.7c11.1,0,20.1,9.4,20.1,20.5C40.8-305.4,31.8-296,20.7-296z M21.6-417h-200.9
	c-11.1,0-20.1-9.2-20.1-20.3c0-5.6,2.2-10.4,5.9-14c3.6-3.6,8.7-5.7,14.2-5.7H21.6c11.1,0,20.1,8.9,20.1,20S32.7-417,21.6-417z
	 M159-276v-221.7L381.3-276H159z"/>
<path class="st0" d="M267-67.7c0-39.9-32.4-72.3-72.3-72.3h-544.3c-39.9,0-72.3,32.4-72.3,72.3v195.3c0,39.9,32.4,72.3,72.3,72.3
	h544.3c39.9,0,72.3-32.4,72.3-72.3L267-67.7L267-67.7z M-108-16h-44v116h-27V-16h-44v-24h115V-16z M-66,100h-26V-40h26V100z M60-14
	h-74v38h70v24h-70v52h-27V-40H60V-14z"/>
<path class="st0" d="M177.4-565h-382.5c-52.5,0-94.9,41.5-94.9,94v283h503.3c62,0,112.7,50.1,112.7,112.1V135
	c0,62-50.7,113-112.7,113h-503c1.5,51,43.1,92,94.7,92h558.8c52.5,0,95.2-43,95.2-95.6v-537.5L177.4-565z M20.7-296h-200.9
	c-11.1,0-20.1-9.4-20.1-20.5c0-5.6,2.2-10.8,5.9-14.4c3.6-3.6,8.7-6.1,14.2-6.1H20.7c11.1,0,20.1,9.4,20.1,20.5
	C40.8-305.4,31.8-296,20.7-296z M21.6-417h-200.9c-11.1,0-20.1-9.2-20.1-20.3c0-5.6,2.2-10.4,5.9-14c3.6-3.6,8.7-5.7,14.2-5.7H21.6
	c11.1,0,20.1,8.9,20.1,20S32.7-417,21.6-417z M159-276v-221.7L381.3-276H159z"/>
<path class="st0" d="M-30.2-10.6l-26,59.6h52L-30.2-10.6z M-30.2-10.6l-26,59.6h52L-30.2-10.6z M267-67.7
	c0-39.9-32.4-72.3-72.3-72.3h-544.3c-39.9,0-72.3,32.4-72.3,72.3v195.3c0,39.9,32.4,72.3,72.3,72.3h544.3
	c39.9,0,72.3-32.4,72.3-72.3L267-67.7L267-67.7z M-159.6,100H-182l-17.4-44.1l-14.8-44.3l-14.6,44.7l-17,43.7h-22.4l-51.4-140h29.6
	l33,101l34-101h17.2l35,101l32-101h29.6L-159.6,100z M18.2,100L6.4,74h-73.2l-12,26h-28.6l62.8-140h28.8L47,100H18.2z M112,101H84.6
	L26.4-40H56L98.2,69l42.4-109h29.6L112,101z M-56.2,49h52l-26-59.6L-56.2,49z"/>
<path class="st0" d="M177.4-565h-382.5c-52.5,0-94.9,41.4-94.9,94v283h503.3c62,0,112.7,50,112.7,112.1V135c0,62-50.7,113-112.7,113
	h-503c1.5,51,43.1,92,94.7,92h558.8c52.5,0,95.2-43.1,95.2-95.6v-537.5L177.4-565z M20.7-296h-200.9c-11.1,0-20.1-9.4-20.1-20.5
	c0-5.6,2.2-10.8,5.9-14.4c3.6-3.6,8.7-6.1,14.2-6.1H20.7c11.1,0,20.1,9.4,20.1,20.5C40.8-305.4,31.8-296,20.7-296z M21.6-417h-200.9
	c-11.1,0-20.1-9.2-20.1-20.3c0-5.6,2.2-10.4,5.9-14c3.6-3.6,8.7-5.7,14.2-5.7H21.6c11.1,0,20.1,8.9,20.1,20S32.7-417,21.6-417z
	 M159-276v-221.7L381.3-276H159z"/>
<path class="st0" d="M267-67.7c0-39.9-32.4-72.3-72.3-72.3h-544.3c-39.9,0-72.3,32.4-72.3,72.3v195.3c0,39.9,32.4,72.3,72.3,72.3
	h544.3c39.9,0,72.3-32.4,72.3-72.3L267-67.7L267-67.7z M-180.6,100H-203l-17.4-44.1l-14.8-44.3l-14.6,44.7l-17,43.7h-22.4l-51.4-140
	h29.6l33,101l34-101h17.2l35,101l32-101h29.6L-180.6,100z M34,100H8V-1.7L-37.6,60h-5.2L-88-1.9V100h-26V-40h30.6l43.8,60.2L4.2-40
	H34V100z M170.4,100l-11.8-26H85.4l-12,26H44.8l62.8-140h28.8l62.8,140H170.4z M96,49h52l-26-59.6L96,49z"/>
<path class="st0" d="M177.4-565h-382.5c-52.5,0-94.9,41.4-94.9,94v283h503.3c62,0,112.7,50,112.7,112.1V135c0,62-50.7,113-112.7,113
	h-503c1.5,51,43.1,92,94.7,92h558.8c52.5,0,95.2-43.1,95.2-95.6v-537.5L177.4-565z M20.7-296h-200.9c-11.1,0-20.1-9.4-20.1-20.5
	c0-5.6,2.2-10.8,5.9-14.4c3.6-3.6,8.7-6.1,14.2-6.1H20.7c11.1,0,20.1,9.4,20.1,20.5C40.8-305.4,31.8-296,20.7-296z M21.6-417h-200.9
	c-11.1,0-20.1-9.2-20.1-20.3c0-5.6,2.2-10.4,5.9-14c3.6-3.6,8.7-5.7,14.2-5.7H21.6c11.1,0,20.1,8.9,20.1,20S32.7-417,21.6-417z
	 M159-276v-221.7L381.3-276H159z"/>
<path class="st0" d="M-44.6,28.8C-45.2,7-58-15-88.4-15H-117v90h28.6C-56.6,75-44,51.6-44.6,28.8z M-44.6,28.8
	C-45.2,7-58-15-88.4-15H-117v90h28.6C-56.6,75-44,51.6-44.6,28.8z M267-67.7c0-39.9-32.4-72.3-72.3-72.3h-544.3
	c-39.9,0-72.3,32.4-72.3,72.3v195.3c0,39.9,32.4,72.3,72.3,72.3h544.3c39.9,0,72.3-32.4,72.3-72.3L267-67.7L267-67.7z M-207.6,102.9
	c-52,0-74-35.8-74.2-72.2c-0.2-36.6,23.6-73.8,74.2-73.8c19,0,37,7.2,51.4,21.4l-17.6,17c-9.2-9-21.6-13.2-33.8-13.2
	c-33.8,0-48.4,25.2-48.2,48.6c0.2,23.2,13.6,47.4,48.2,47.4c12.2,0,26-5,35.2-14.2l18,18.2C-168.8,96.3-187.4,102.9-207.6,102.9z
	 M-88.4,100H-144V-40h55.6c48,0,69.4,34.2,70,68.8C-17.8,64.2-39.4,100-88.4,100z M123,100H91.8L51,53H25v47H-1V-40.5
	c22,0,44.5,0.2,66.7,0.2c33,0.2,50.4,22.2,50.4,46.4c0,19.2-8.9,38.6-35.5,44L123,97.9V100z M89.8,7.5c0-11.2-7.4-22.5-24-22.5H25
	v45h40.8C82.6,30,89.8,18.7,89.8,7.5z M-88.4-15H-117v90h28.6c31.8,0,44.4-23.4,43.8-46.2C-45.2,7-58-15-88.4-15z"/>
<path class="st0" d="M177.4-565h-382.5c-52.5,0-94.9,41.4-94.9,94v283h503.3c62,0,112.7,50,112.7,112.1V135c0,62-50.7,113-112.7,113
	h-503c1.5,51,43.1,92,94.7,92h558.8c52.5,0,95.2-43.1,95.2-95.6v-537.5L177.4-565z M20.7-296h-200.9c-11.1,0-20.1-9.4-20.1-20.5
	c0-5.6,2.2-10.8,5.9-14.4c3.6-3.6,8.7-6.1,14.2-6.1H20.7c11.1,0,20.1,9.4,20.1,20.5C40.8-305.4,31.8-296,20.7-296z M21.6-417h-200.9
	c-11.1,0-20.1-9.2-20.1-20.3c0-5.6,2.2-10.4,5.9-14c3.6-3.6,8.7-5.7,14.2-5.7H21.6c11.1,0,20.1,8.9,20.1,20S32.7-417,21.6-417z
	 M159-276v-221.7L381.3-276H159z"/>
<path class="st0" d="M-70.6-19.1c-33,0-46.6,26.6-46,50.2c0.6,23,13,47.6,46,47.6s45.4-24.8,45.8-47.8
	C-24.4,7.3-37.6-19.1-70.6-19.1z M-70.6-19.1c-33,0-46.6,26.6-46,50.2c0.6,23,13,47.6,46,47.6s45.4-24.8,45.8-47.8
	C-24.4,7.3-37.6-19.1-70.6-19.1z M267-67.7c0-39.9-32.4-72.3-72.3-72.3h-544.3c-39.9,0-72.3,32.4-72.3,72.3v195.3
	c0,39.9,32.4,72.3,72.3,72.3h544.3c39.9,0,72.3-32.4,72.3-72.3L267-67.7L267-67.7z M-210.8,101h-27.4l-58.2-141h29.6l42.2,109
	l42.4-109h29.6L-210.8,101z M-70.6,102.9c-49.2,0-72-35.4-72-72.2c0-36.8,23.6-73.8,72-73.8c48.2,0,72.2,37,71.8,73.6
	C0.8,66.7-21.4,102.9-70.6,102.9z M86.2,100H20V-40h66.2c27.6,0,48.2,12.3,48.2,40.5c0,10.8-5.2,21.2-18.2,27
	c16.4,5,22.4,22.5,22.4,31.3C138.6,89.9,115.2,100,86.2,100z M108.2,1.1c0-6.4-5.2-17.1-22-17.1H46v32h40.2
	C102.8,16,108.2,9.1,108.2,1.1z M86.2,40H46v36h40.2c10.8,0,26.2-3.6,26.2-16.8C112.4,46.6,97,40,86.2,40z M-70.6-19.1
	c-33,0-46.6,26.6-46,50.2c0.6,23,13,47.6,46,47.6s45.4-24.8,45.8-47.8C-24.4,7.3-37.6-19.1-70.6-19.1z"/>
<path class="st0" d="M177.4-565h-382.5c-52.5,0-94.9,41.4-94.9,94v283h503.3c62,0,112.7,50,112.7,112.1V135c0,62-50.7,113-112.7,113
	h-503c1.5,51,43.1,92,94.7,92h558.8c52.5,0,95.2-43.1,95.2-95.6v-537.5L177.4-565z M20.7-296h-200.9c-11.1,0-20.1-9.4-20.1-20.5
	c0-5.6,2.2-10.8,5.9-14.4c3.6-3.6,8.7-6.1,14.2-6.1H20.7c11.1,0,20.1,9.4,20.1,20.5C40.8-305.4,31.8-296,20.7-296z M21.6-417h-200.9
	c-11.1,0-20.1-9.2-20.1-20.3c0-5.6,2.2-10.4,5.9-14c3.6-3.6,8.7-5.7,14.2-5.7H21.6c11.1,0,20.1,8.9,20.1,20S32.7-417,21.6-417z
	 M159-276v-221.7L381.3-276H159z"/>
<path class="st0" d="M-157.2,30.9c-0.4,23-12.8,47.8-45.8,47.8s-45.4-24.6-46-47.6c-0.6-23.6,13-50.2,46-50.2S-156.8,7.3-157.2,30.9
	z"/>
<path class="st0" d="M267-67.7c0-39.9-32.4-72.3-72.3-72.3h-544.3c-39.9,0-72.3,32.4-72.3,72.3v195.3c0,39.9,32.4,72.3,72.3,72.3
	h544.3c39.9,0,72.3-32.4,72.3-72.3L267-67.7L267-67.7z M-203,102.9c-49.2,0-72-35.4-72-72.2c0-36.8,23.6-73.8,72-73.8
	c48.2,0,72.2,37,71.8,73.6C-131.6,66.7-153.8,102.9-203,102.9z M-13-16h-45v116h-26V-16h-44v-24h115V-16z M103-14H29v38h70v24H29v52
	H3V-40h100V-14z"/>
</svg>
